<svg xmlns="http://www.w3.org/2000/svg" width="74" height="74" viewBox="0 0 74 74"><defs><style>.a{fill:#89ddd8;}.b{fill:#fff;}</style></defs><g transform="translate(-359 -467)"><circle class="a" cx="37" cy="37" r="37" transform="translate(359 467)"/><path class="b" d="M20.089,12.024a10.3,10.3,0,1,0,10.3,10.3A10.283,10.283,0,0,0,20.089,12.024Zm0,16.995a6.7,6.7,0,1,1,6.7-6.7A6.708,6.708,0,0,1,20.089,29.018ZM33.211,11.6a2.4,2.4,0,1,1-2.4-2.4A2.4,2.4,0,0,1,33.211,11.6Zm6.821,2.438c-.152-3.218-.887-6.068-3.245-8.417s-5.2-3.083-8.417-3.245c-3.316-.188-13.257-.188-16.574,0-3.209.152-6.059.887-8.417,3.236S.3,10.814.136,14.031c-.188,3.316-.188,13.257,0,16.574.152,3.218.887,6.068,3.245,8.417s5.2,3.083,8.417,3.245c3.316.188,13.257.188,16.574,0,3.218-.152,6.068-.887,8.417-3.245s3.083-5.2,3.245-8.417c.188-3.316.188-13.248,0-16.565ZM35.748,34.163a6.779,6.779,0,0,1-3.818,3.818c-2.644,1.049-8.919.807-11.841.807s-9.206.233-11.841-.807a6.779,6.779,0,0,1-3.818-3.818c-1.049-2.644-.807-8.919-.807-11.841s-.233-9.206.807-11.841A6.779,6.779,0,0,1,8.248,6.663c2.644-1.049,8.919-.807,11.841-.807s9.206-.233,11.841.807a6.779,6.779,0,0,1,3.818,3.818c1.049,2.644.807,8.919.807,11.841S36.8,31.528,35.748,34.163Z" transform="translate(376.287 482.511)"/></g></svg>