<svg xmlns="http://www.w3.org/2000/svg" width="267.95" height="197.245" viewBox="0 0 267.95 197.245"><defs><style>.a{fill:#152a29;}</style></defs><g transform="translate(-160.804 -24.621)"><path class="a" d="M106.54,7.437c-6.437,2.437-8.624,3.687-15.248,4.624a8.588,8.588,0,0,0-6.062,3.625C68.92,39.746,60.609,70.179,53.3,97.8c-1.25,5.124-9,2.625-7.687-2.375,7-26.247,14.873-55.181,29.434-78.8a1.876,1.876,0,0,0-1.812-2.812C65.3,15.124,57.609,17.686,53.3,24.935c-2.75,4.374-10.061-.25-6.812-4.249C59.171,4.875,83.668,7.75,102.666.313,107.415-1.562,111.415,5.562,106.54,7.437Z" transform="translate(143.78 24.619)"/><path class="a" d="M129.483,96.232c-3.062,5.874-8.124,16.81-15.936,17.873a10.257,10.257,0,0,1-4.374-.312,4.155,4.155,0,0,0-3.875,1.187,18.574,18.574,0,0,1-11.311,6.5c-4.624.812-9.686-2-12.061-6-2.812-4.812-2.812-12.561-1.187-18,3-9.936,9.936-25.684,23.247-21.5,10.936,3.562,13.811,13.748,10.124,23.934-.5,1.25-.937,2.562-1.562,3.875-.437.875.812,1.75,1.562,1.062.125,0,.187-.187.312-.187,3.562-3.687,6-8.124,8.311-12.686C125.109,87.42,131.8,91.67,129.483,96.232ZM98.737,110.1c1-2.312,1.75-2.625.5-4.624l-1.5-2.5c-1.312-2.437.25-4.5,2.25-5.437,1.25-.687,2.625.062,3.75.937a1.764,1.764,0,0,0,2.812-.812c1.25-4.062,1.75-6.874.937-9.311-1.062-3.375-5.374-5.874-8.874-4.687-6.374,2.25-8.624,10.811-10.374,16.56-.937,3.875-2.187,12.186,3.625,13.311C94.363,114.1,96.988,111.98,98.737,110.1Z" transform="translate(130.961 -3.62)"/><path class="a" d="M191.323,61.849c-6.124,8.811-14.561,25.309-27.309,23.06-4.062-.625-9.124-5.749-11-10.5a2.225,2.225,0,0,0-3.25-1.062c-.25.062-.312.187-.437.25a3.113,3.113,0,0,0-1.375,1.75c-2.062,5.562-4.5,11.311-8.061,15.5-3.125,3.687-8.374-1.937-5.187-5.562,4.937-5.937,7.687-16.56,10.249-23.935,3.25-8.811,5.874-17.685,8.874-26.559,1.875-5.749,8-25.059,17.5-21.81,6.749,2.312,9.374,12.436,6,18.56-5.5,10.249-16.81,15.873-22.872,25.934l-.375,1.125c-.25.562.625,1,1.062.687,3.687-3.687,7.124-7.749,11.186-10.936,3.875-3,10.249-3.937,12.686,1.562,4.062,9.061-6.5,18.373-15.936,22.372A2.149,2.149,0,0,0,162.7,75.1l.312.312c3.312,3.625,7.562.812,10.436-2.437A180.294,180.294,0,0,0,184.824,57.85C187.636,53.913,194.01,57.85,191.323,61.849ZM161.514,35.728a.906.906,0,0,0,1.5.937l2.187-2.187c2.937-2.875,6.687-6.249,5.5-10.874-1.75-6.874-7.936,8.186-8.686,10.436A12.2,12.2,0,0,0,161.514,35.728Zm.25,27.434c-.5.5.187,1.375.75,1,1.687-1.187,3.187-2.437,4.5-3.5,1.75-1.437,3.812-3.125,4.874-5.187,1.875-3.687-2.562.062-2.875.437Z" transform="translate(110.678 19.888)"/><path class="a" d="M270.862,63.069c-3.75,6.187-12.936,21.685-21.872,20.247-3.5-.625-6.5-2.25-8.061-5.124-4.687,6.687-10.686,12.061-18.5,11.436-13.5-1.25-10.061-19.685-4.812-27.247,4-6.124,9.124-10.811,14.873-15.248,4.374-3.375,11.749-7.937,16.185-6.749h.125c6.562,2.5,7.312,5.687,4.249,13.248a100.019,100.019,0,0,0-5.187,16c-.875,4.062-.625,7.937,3.5,5.687,4.937-2.812,10-11.561,12.936-16.248C266.863,54.758,273.549,58.82,270.862,63.069Zm-28.809-3.125c.187-.437,3.75-9.436,4.374-11.936-6.687.875-15.061,9.374-18.935,14-3.562,4.187-7.374,10-6.812,15.873.25,3.937,2.562,5,6.187,3.125C234.429,76.88,238.928,67.631,242.053,59.945Z" transform="translate(80.946 9.544)"/><path class="a" d="M345.637,43.211c-7.187,14.123-18.81,24.372-31.309,33.746a233.465,233.465,0,0,1-11.311,27.809c-2.937,5.874-10.311,13.686-17.623,9.561-7.312-4-7.687-12.373-3.437-19.185,5.749-9.374,15.561-15.436,24.559-21.935a.122.122,0,0,0,.125-.125,5.219,5.219,0,0,0-4.749-6.937,15.254,15.254,0,0,1-8.936-3.75c-10.5-8.811,2.937-27,6.187-37.37,1.5-4.749,8.749-2.437,7.249,2.187-2.25,7.124-7.374,14.936-8.936,22.185-1.375,6.937,3.812,10.249,9.561,8.249,3.5-1.062,5.562-3.875,7.187-6.874,3.687-11,7.562-22,11.811-32.683,1.812-4.562,9.061-2.375,7.249,2.187-5.562,14-9.874,28.746-14.686,43.37,8.249-7,15.436-14.5,20.5-24.372C341.513,34.837,347.887,38.9,345.637,43.211ZM302.205,86.018l-2.312,1.687c-4.187,3.187-9.124,6.562-11.436,11.5-3.375,7.124,5.312,9,8.124,1.5,1.437-3.812,3.125-7.749,4.562-11.686Z" transform="translate(56.102 18.779)"/><path class="a" d="M110.907,155.372a29.759,29.759,0,0,0-11.374,5.249,21.768,21.768,0,0,1,7.812,20.747c-2.187,14.623-18.56,27.684-34.246,29.871a10.194,10.194,0,0,1-.812,2c-7.062,15.248-20,36.558-38.745,39C17.669,254.359.8,243.8-.017,226.425-.7,211.8,11.419,201.491,25.105,199.179c5.249-.812,7.062,7.062,1.875,8-7.249,1.187-16.435,5.249-18.31,13.123-2.687,10.624,6.062,24.247,17.685,24.247,18.185.187,30.5-17.623,37.433-32.433l.5-.75a22,22,0,0,1-16.873-11.874c-2.5-4.624,4.624-8.5,7.124-3.874a14.4,14.4,0,0,0,8.436,7.249,4.631,4.631,0,0,0,5.812-2.812c4.5-11.811,9-24.809,15.936-35.121a1.881,1.881,0,0,0-1.25-3.062,25.354,25.354,0,0,0-8.686.063c-12.436,2.375-21.622,8.561-28.746,19-2.875,4.312-9.686.063-6.874-4.374,9.249-13.686,26.5-25.872,44.182-23a50.677,50.677,0,0,1,8.311,2.187,1.033,1.033,0,0,0,1.187,0,34.562,34.562,0,0,1,16.185-8.311C114.094,146.31,115.969,154.309,110.907,155.372Zm-17.185,11c-8,9.5-12.5,23.685-17.185,35.871,10.249-3.312,19.935-11.874,22.185-19.935C100.658,175.369,98.221,169.995,93.722,166.37Z" transform="translate(160.848 -30.639)"/><path class="a" d="M221.318,219.818c-2.875,6.624-16.311,31.684-27.559,24.809-5.937-3.687-5.937-12.248-3.437-18,1-2.312,7.936-15.311,5.187-16.748a6.136,6.136,0,0,0-1.125-.5c-5.124,8.686-12.748,16.06-16.185,25.684-1.687,5.062-9.686,1.25-7.187-3.5,4.937-9.311,10.561-15.936,15.5-24.747-10.374-5.124-3.812-20.122,6.749-14.311,3.25,1.812,4,5.437,3.562,9.124l.812.187c2,.687,4.687,2.25,5.562,4.437,3.562,9.061-4.062,16.623-5.812,25.059-1.937,9.5,3.937,3.5,6.749.5a44.351,44.351,0,0,0,9.311-14.5C215.631,212.632,223.443,214.944,221.318,219.818Z" transform="translate(96.869 -47.092)"/><path class="a" d="M281.992,219.01c-6.874,9.936-18.5,24-33.121,19.248-17.56-5.874-9.624-28.5.312-38.058,4.624-4.562,12.811-9.624,19.373-5.437,5.124,3.062,6.374,10.061,4.374,15.311-3.312,8.686-14.561,17-24.247,15.623A1.591,1.591,0,0,0,247,228.008c.75,1.5,2.187,2.187,5.062,2.687,10,1.812,21.247-9.124,24.684-17.685C278.617,208.386,286.054,213.135,281.992,219.01Zm-33.308-3.687a1.8,1.8,0,0,0,1.25,2.562c3.125.562,6.374-1.125,8.686-2.687a19.542,19.542,0,0,0,6.374-7.187c3.625-7.187-4.562-7.749-8.874-3.625A38.1,38.1,0,0,0,248.684,215.323Z" transform="translate(71.378 -47.846)"/><path class="a" d="M342.5,196.821c-3.75,8.936-9.811,14.748-18.123,19.5a36.334,36.334,0,0,1-5.312,3.312c-7.562,3.187-16.248.937-19.685-6.687-3.312-7.624,1.75-15.936,9-18.185,4.624-1.312,6.312,5.937,1.75,7.374-8.374,2.5-2.687,13.561,4.312,11.186,1.562-.625,5.062-1.687,6.562-4.124,4.5-7.249-1.562-11.811-4.437-18-2.125-4.687-2.5-12.5.625-16.748,3.125-4.5,9.311-7.374,14.561-4.312,6.374,3.562,4.937,10,2.062,15.5-2.062,4.374-8.561.437-6.374-3.937,3.812-7.5-3.75-5.624-4.624-1.375a12.9,12.9,0,0,0,.375,7.062c1.5,4.312,5.624,7.5,6.437,12.5a1.419,1.419,0,0,0,2.5.687,24.408,24.408,0,0,0,3.375-6C337.311,190.134,344.435,192.384,342.5,196.821Z" transform="translate(48.93 -38.718)"/><path class="a" d="M401.7,183.021c-3.75,8.936-9.811,14.748-18.123,19.5a36.33,36.33,0,0,1-5.312,3.312c-7.562,3.187-16.248.937-19.685-6.687-3.312-7.624,1.75-15.936,9-18.185,4.624-1.312,6.312,5.937,1.75,7.374-8.374,2.5-2.687,13.561,4.312,11.186,1.562-.625,5.062-1.687,6.562-4.125,4.5-7.249-1.562-11.811-4.437-18-2.125-4.687-2.5-12.5.625-16.748,3.125-4.5,9.311-7.374,14.561-4.312,6.437,3.562,4.937,10,2.062,15.5-2.062,4.374-8.561.437-6.374-3.937,3.812-7.5-3.75-5.624-4.624-1.375a12.9,12.9,0,0,0,.375,7.062c1.5,4.312,5.624,7.5,6.437,12.5a1.419,1.419,0,0,0,2.5.687,24.4,24.4,0,0,0,3.375-6C396.511,176.334,403.635,178.584,401.7,183.021Z" transform="translate(26.726 -33.542)"/></g></svg>