<?xml version="1.0" encoding="utf-8"?>
<!-- Generator: Adobe Illustrator 25.0.0, SVG Export Plug-In . SVG Version: 6.00 Build 0)  -->
<svg version="1.1" id="Layer_1" xmlns="http://www.w3.org/2000/svg" xmlns:xlink="http://www.w3.org/1999/xlink" x="0px" y="0px"
	 viewBox="0 0 374.8 92" style="enable-background:new 0 0 374.8 92;" xml:space="preserve">
<style type="text/css">
	.st0{fill:#152A29;}
</style>
<g id="Group_19" transform="translate(-6693.527 -4149.578)">
	<g id="Group_16" transform="translate(929.748 -1236.055) rotate(11)">
		<path id="Path_1" class="st0" d="M6741.6,4181.8c-4.7,1.8-6.3,2.7-11.1,3.4c-1.8,0.2-3.4,1.2-4.4,2.6
			c-11.9,17.5-17.9,39.7-23.2,59.7c-0.9,3.7-6.5,1.9-5.6-1.7c5.1-19.1,10.8-40.2,21.4-57.3c0.4-0.7,0.2-1.5-0.5-1.9
			c-0.3-0.1-0.5-0.2-0.8-0.2c-5.8,1-11.4,2.8-14.5,8.1c-2,3.2-7.3-0.2-5-3.1c9.2-11.5,27.1-9.4,40.9-14.8
			C6742.3,4175.2,6745.2,4180.4,6741.6,4181.8z"/>
		<path id="Path_2" class="st0" d="M6749,4225.9c-2.2,4.3-5.9,12.2-11.6,13c-1.1,0.2-2.2,0.1-3.2-0.2c-1-0.2-2.1,0.1-2.8,0.9
			c-2.1,2.5-5,4.2-8.2,4.7c-3.4,0.6-7-1.5-8.8-4.4c-2-3.5-2-9.1-0.9-13.1c2.2-7.2,7.2-18.7,16.9-15.6c8,2.6,10,10,7.4,17.4
			c-0.4,0.9-0.7,1.9-1.1,2.8c-0.3,0.6,0.6,1.3,1.1,0.8c0.1,0,0.1-0.1,0.2-0.1c2.5-2.8,4.5-5.9,6.1-9.2
			C6745.8,4219.4,6750.7,4222.5,6749,4225.9z M6726.6,4235.9c0.7-1.7,1.3-1.9,0.4-3.4l-1.1-1.8c-1-1.8,0.2-3.3,1.6-4
			c0.9-0.5,1.9,0,2.7,0.7c0.5,0.5,1.4,0.4,1.8-0.2c0.1-0.1,0.2-0.3,0.2-0.4c0.9-3,1.3-5,0.7-6.8c-1-2.6-3.7-4.1-6.5-3.4
			c-4.6,1.6-6.3,7.9-7.5,12.1c-0.7,2.8-1.6,8.9,2.6,9.7C6723.4,4238.9,6725.3,4237.3,6726.6,4235.9z"/>
		<path id="Path_3" class="st0" d="M6779.2,4217.9c-4.5,6.4-10.6,18.4-19.9,16.8c-3-0.5-6.6-4.2-8-7.6c-0.3-0.8-1.3-1.2-2.1-0.9
			c-0.1,0-0.2,0.1-0.3,0.1c-0.2,0-0.2,0.1-0.3,0.2c-0.5,0.3-0.8,0.7-1,1.3c-1.5,4-3.3,8.2-5.9,11.3c-2.3,2.7-6.1-1.4-3.8-4
			c3.6-4.3,5.6-12,7.5-17.4c2.4-6.4,4.3-12.9,6.5-19.3c1.4-4.2,5.8-18.2,12.7-15.9c4.9,1.7,6.8,9,4.4,13.5
			c-4,7.5-12.2,11.5-16.6,18.9l-0.3,0.8c-0.2,0.4,0.5,0.7,0.8,0.5c2.7-2.7,5.2-5.6,8.1-8c2.8-2.2,7.5-2.9,9.2,1.1
			c3,6.6-4.7,13.4-11.6,16.3c-0.6,0.5-0.7,1.4-0.3,2l0.2,0.2c2.4,2.6,5.5,0.6,7.6-1.8c2.9-3.5,5.7-7.2,8.3-11
			C6776.5,4212.2,6781.2,4215,6779.2,4217.9z M6757.5,4198.9c-0.1,0.3,0.1,0.7,0.4,0.8c0.2,0.1,0.5,0,0.7-0.2l1.6-1.6
			c2.1-2.1,4.9-4.5,4-7.9c-1.3-5-5.8,6-6.3,7.6C6757.7,4198.1,6757.6,4198.5,6757.5,4198.9z M6757.7,4218.9c-0.4,0.4,0.1,1,0.5,0.7
			c1.2-0.9,2.3-1.8,3.3-2.5c1.4-1,2.6-2.3,3.5-3.8c1.4-2.7-1.9,0-2.1,0.3L6757.7,4218.9z"/>
		<path id="Path_4" class="st0" d="M6815.5,4211.3c-2.7,4.5-9.4,15.8-15.9,14.7c-2.4-0.3-4.6-1.6-5.9-3.7c-3.4,4.9-7.8,8.8-13.5,8.3
			c-9.8-0.9-7.3-14.3-3.5-19.8c2.9-4.3,6.6-8,10.8-11.1c3.2-2.5,8.5-5.8,11.8-4.9h0.1c4.8,1.8,5.3,4.1,3.1,9.6
			c-1.6,3.8-2.8,7.7-3.8,11.6c-0.6,3-0.5,5.8,2.5,4.1c3.6-2,7.3-8.4,9.4-11.8C6812.6,4205.3,6817.4,4208.2,6815.5,4211.3z
			 M6794.5,4209c0.1-0.3,2.7-6.9,3.2-8.7c-4.9,0.6-11,6.8-13.8,10.2c-2.6,3-5.4,7.3-5,11.5c0.2,2.9,1.9,3.6,4.5,2.3
			C6789,4221.3,6792.2,4214.6,6794.5,4209L6794.5,4209z"/>
		<path id="Path_5" class="st0" d="M6851.8,4203.6c-5.2,10.3-13.7,17.7-22.8,24.6c-2.3,6.9-5.1,13.7-8.2,20.2
			c-2.1,4.3-7.5,10-12.8,7c-5.3-2.9-5.6-9-2.5-14c4.2-6.8,11.3-11.2,17.9-16c0,0,0.1,0,0.1-0.1c0,0,0,0,0,0c0.7-2-0.4-4.1-2.3-4.8
			c-0.4-0.1-0.7-0.2-1.1-0.2c-2.4-0.2-4.7-1.1-6.5-2.7c-7.6-6.4,2.1-19.6,4.5-27.2c1.1-3.5,6.4-1.8,5.3,1.6
			c-1.6,5.2-5.4,10.9-6.5,16.1c-1,5,2.8,7.5,7,6c2.5-0.8,4-2.8,5.2-5c2.7-8,5.5-16,8.6-23.8c1.3-3.3,6.6-1.7,5.3,1.6
			c-4,10.2-7.2,20.9-10.7,31.6c6-5.1,11.2-10.5,14.9-17.7C6848.8,4197.5,6853.4,4200.4,6851.8,4203.6z M6820.2,4234.7l-1.7,1.2
			c-3,2.3-6.6,4.8-8.3,8.4c-2.5,5.2,3.9,6.5,5.9,1.1c1-2.8,2.3-5.6,3.3-8.5L6820.2,4234.7z"/>
	</g>
	<g id="Group_17" transform="translate(1137.083 -1301.699) rotate(11)">
		<path id="Path_6" class="st0" d="M6757.2,4249.2c-3,0.7-5.8,2-8.3,3.8c4.5,3.6,6.7,9.4,5.7,15.1c-1.6,10.6-13.5,20.1-24.9,21.7
			c-0.1,0.5-0.3,1-0.6,1.5c-5.1,11.1-14.6,26.6-28.2,28.4c-11.5,1.5-23.8-6.1-24.4-18.8c-0.5-10.6,8.3-18.1,18.3-19.8
			c3.8-0.6,5.1,5.1,1.4,5.8c-5.3,0.9-12,3.8-13.3,9.5c-2,7.7,4.4,17.6,12.9,17.6c13.2,0.1,22.2-12.8,27.2-23.6l0.4-0.5
			c-5.3-0.7-9.9-3.9-12.3-8.6c-1.8-3.4,3.4-6.2,5.2-2.8c1.3,2.5,3.5,4.4,6.1,5.3c1.7,0.6,3.6-0.3,4.2-2c3.3-8.6,6.5-18.1,11.6-25.6
			c0.5-0.6,0.4-1.4-0.2-1.9c-0.2-0.2-0.5-0.3-0.7-0.3c-2.1-0.3-4.2-0.3-6.3,0c-8.6,1.5-16.2,6.5-20.9,13.8c-2.1,3.1-7,0-5-3.2
			c6.7-10,19.3-18.8,32.1-16.7c2.1,0.4,4.1,0.9,6,1.6c0.3,0.2,0.6,0.2,0.9,0c3.3-3,7.4-5.1,11.8-6
			C6759.5,4242.6,6760.9,4248.4,6757.2,4249.2z M6744.7,4257.2c-5.8,6.9-9.1,17.2-12.5,26.1c7.5-2.4,14.5-8.6,16.1-14.5
			C6749.7,4264.6,6748.3,4259.9,6744.7,4257.2L6744.7,4257.2z"/>
		<path id="Path_7" class="st0" d="M6791,4284.1c-2.1,4.8-11.9,23.1-20.1,18.1c-4.3-2.7-4.3-8.9-2.5-13.1c0.7-1.7,5.8-11.1,3.8-12.2
			c-0.3-0.1-0.5-0.3-0.8-0.4c-3.7,6.3-9.3,11.7-11.8,18.7c-1.2,3.7-7,0.9-5.2-2.5c3.6-6.8,7.7-11.6,11.3-18
			c-7.5-3.7-2.8-14.6,4.9-10.4c2.4,1.3,2.9,4,2.6,6.6l0.6,0.1c1.5,0.5,3.4,1.6,4,3.2c2.6,6.6-3,12.1-4.2,18.2
			c-1.4,6.9,2.9,2.5,4.9,0.4c2.9-3,5.2-6.6,6.8-10.5C6786.9,4278.9,6792.5,4280.6,6791,4284.1z"/>
		<path id="Path_8" class="st0" d="M6816.6,4283c-5,7.2-13.5,17.5-24.1,14c-12.8-4.3-7-20.7,0.2-27.7c3.4-3.3,9.3-7,14.1-4
			c3.7,2.2,4.6,7.3,3.2,11.1c-2.4,6.3-10.6,12.4-17.6,11.4c-0.6-0.1-1.2,0.3-1.3,0.9c0,0.3,0,0.5,0.1,0.8c0.5,1.1,1.6,1.6,3.7,2
			c7.3,1.3,15.5-6.6,18-12.9C6814.1,4275.3,6819.6,4278.7,6816.6,4283z M6792.4,4280.3c-0.3,0.6-0.1,1.4,0.6,1.8
			c0.1,0.1,0.2,0.1,0.3,0.1c2.3,0.4,4.6-0.8,6.3-2c2-1.3,3.6-3.1,4.6-5.2c2.6-5.2-3.3-5.6-6.5-2.6
			C6795.5,4274.7,6793.7,4277.4,6792.4,4280.3z"/>
		<path id="Path_9" class="st0" d="M6844.3,4273.5c-2.7,6.5-7.1,10.7-13.2,14.2c-1.2,0.9-2.5,1.7-3.9,2.4
			c-5.5,2.3-11.8,0.7-14.3-4.9c-2.4-5.5,1.3-11.6,6.5-13.2c3.4-1,4.6,4.3,1.3,5.4c-6.1,1.8-2,9.9,3.1,8.1c1.1-0.5,3.7-1.2,4.8-3
			c3.3-5.3-1.1-8.6-3.2-13.1c-1.5-3.4-1.8-9.1,0.5-12.2c2.3-3.3,6.8-5.4,10.6-3.1c4.6,2.6,3.6,7.3,1.5,11.3
			c-1.5,3.2-6.2,0.3-4.6-2.9c2.8-5.5-2.7-4.1-3.4-1c-0.4,1.7-0.3,3.5,0.3,5.1c1.1,3.1,4.1,5.5,4.7,9.1c0.1,0.6,0.6,1,1.2,0.9
			c0.3,0,0.5-0.2,0.6-0.4c1-1.3,1.8-2.8,2.5-4.4C6840.5,4268.6,6845.7,4270.3,6844.3,4273.5z"/>
		<path id="Path_10" class="st0" d="M6871.2,4267.2c-2.7,6.5-7.1,10.7-13.2,14.2c-1.2,0.9-2.5,1.7-3.9,2.4
			c-5.5,2.3-11.8,0.7-14.3-4.9c-2.4-5.5,1.3-11.6,6.5-13.2c3.4-1,4.6,4.3,1.3,5.4c-6.1,1.8-2,9.9,3.1,8.1c1.1-0.5,3.7-1.2,4.8-3
			c3.3-5.3-1.1-8.6-3.2-13.1c-1.5-3.4-1.8-9.1,0.5-12.2c2.3-3.3,6.8-5.4,10.6-3.1c4.7,2.6,3.6,7.3,1.5,11.3
			c-1.5,3.2-6.2,0.3-4.6-2.9c2.8-5.5-2.7-4.1-3.4-1c-0.4,1.7-0.3,3.5,0.3,5.1c1.1,3.1,4.1,5.5,4.7,9.1c0.1,0.6,0.6,1,1.2,0.9
			c0.3,0,0.5-0.2,0.6-0.4c1-1.3,1.8-2.8,2.5-4.4C6867.4,4262.4,6872.6,4264,6871.2,4267.2z"/>
	</g>
</g>
</svg>
