<svg xmlns="http://www.w3.org/2000/svg" width="74" height="74" viewBox="0 0 74 74"><defs><style>.a{fill:#89ddd8;}.b{fill:#fff;}</style></defs><g transform="translate(-359 -340)"><circle class="a" cx="37" cy="37" r="37" transform="translate(359 340)"/><path class="b" d="M39.3,12.246c.028.389.028.778.028,1.167,0,11.867-9.032,25.54-25.54,25.54A25.367,25.367,0,0,1,0,34.924a18.57,18.57,0,0,0,2.168.111A17.977,17.977,0,0,0,13.312,31.2a8.992,8.992,0,0,1-8.393-6.225,11.32,11.32,0,0,0,1.7.139,9.494,9.494,0,0,0,2.362-.306A8.978,8.978,0,0,1,1.779,16v-.111a9.04,9.04,0,0,0,4.057,1.139A8.99,8.99,0,0,1,3.057,5.02a25.515,25.515,0,0,0,18.509,9.393,10.133,10.133,0,0,1-.222-2.056A8.985,8.985,0,0,1,36.879,6.215a17.673,17.673,0,0,0,5.7-2.168,8.952,8.952,0,0,1-3.946,4.947A18,18,0,0,0,43.8,7.605a19.3,19.3,0,0,1-4.5,4.641Z" transform="translate(376.282 356.666)"/></g></svg>